<svg width="124" height="19" viewBox="0 0 124 19" fill="none" xmlns="http://www.w3.org/2000/svg">
<g clip-path="url(#clip0_1040_9945)">
<path d="M0 17.4067V0.809204H3.6405V17.4067H0Z" fill="white"/>
<path d="M6.54688 17.4066V4.67982H9.3557L9.62561 6.41846H9.79677C10.0883 6.00105 10.4471 5.63394 10.8589 5.33181C11.2831 5.02008 11.7581 4.78265 12.2633 4.62983C12.8175 4.46429 13.3939 4.38296 13.9727 4.3886C14.7395 4.37185 15.5 4.52947 16.1956 4.84934C16.8355 5.16029 17.355 5.67018 17.6747 6.3011C18.0228 6.96323 18.1977 7.82603 18.1991 8.88949V17.4066H14.7956V9.41326C14.804 9.06493 14.7544 8.7176 14.6486 8.38529C14.5599 8.12046 14.4095 7.88001 14.2097 7.68332C14.0156 7.49447 13.7763 7.3576 13.5141 7.2856C13.2121 7.20143 12.8995 7.16045 12.5859 7.1639C12.1051 7.15781 11.632 7.28342 11.2187 7.52684C10.8146 7.76397 10.4843 8.10687 10.2642 8.51786C10.031 8.96637 9.91416 9.46526 9.92405 9.96962V17.398L6.54688 17.4066Z" fill="white"/>
<path d="M25.864 17.6957C25.05 17.7056 24.2383 17.6084 23.4501 17.4067C22.7973 17.2413 22.1777 16.9672 21.6178 16.596C21.1384 16.275 20.741 15.8479 20.457 15.3486C20.1834 14.8431 20.0452 14.2767 20.0554 13.7034V13.51C20.0521 13.4609 20.0604 13.4118 20.0795 13.3665H23.3536V13.5599C23.3546 13.9235 23.495 14.273 23.7464 14.5379C24.0121 14.8023 24.3449 14.9907 24.7097 15.0834C25.1188 15.1978 25.542 15.2548 25.9671 15.2529C26.3487 15.2536 26.7294 15.2172 27.1038 15.1443C27.4402 15.0838 27.758 14.947 28.032 14.7444C28.1516 14.659 28.2486 14.5462 28.3147 14.4156C28.3808 14.2851 28.414 14.1406 28.4116 13.9946C28.4179 13.8172 28.3772 13.6413 28.2937 13.4842C28.2102 13.3272 28.0867 13.1945 27.9355 13.0992C27.5511 12.8629 27.13 12.691 26.689 12.5907C26.1756 12.4617 25.6174 12.3168 25.0147 12.156C24.4617 12.0271 23.908 11.8778 23.3536 11.7083C22.8268 11.5504 22.3225 11.327 21.8526 11.0433C21.4099 10.7745 21.0377 10.4059 20.7664 9.96749C20.4705 9.45675 20.326 8.87374 20.3494 8.28536C20.333 7.67703 20.4847 7.07581 20.7883 6.54672C21.0868 6.04958 21.5015 5.63071 21.9974 5.32533C22.551 4.99358 23.1583 4.75904 23.7924 4.63204C24.5269 4.47373 25.2769 4.39647 26.0285 4.40168C26.7352 4.39669 27.4401 4.47401 28.1286 4.63204C28.7314 4.76489 29.3086 4.99311 29.838 5.30794C30.3037 5.58489 30.6975 5.96597 30.9879 6.42067C31.2653 6.86815 31.4091 7.3843 31.4026 7.90937V8.2245C31.4067 8.2899 31.3986 8.3555 31.3785 8.41793H28.1351V8.2245C28.142 7.95376 28.0465 7.69024 27.8674 7.48558C27.6568 7.26438 27.3912 7.10176 27.0972 7.01398C26.7062 6.89258 26.2978 6.83532 25.8881 6.84446C25.5896 6.84222 25.2914 6.86623 24.9972 6.91618C24.7561 6.95578 24.5219 7.02895 24.3015 7.13351C24.1256 7.21402 23.9709 7.33378 23.8495 7.48341C23.7843 7.57192 23.7376 7.67243 23.7121 7.77904C23.6866 7.88566 23.6828 7.99624 23.701 8.10431C23.7192 8.21239 23.759 8.31579 23.818 8.40845C23.877 8.50111 23.9541 8.58117 24.0448 8.64395C24.3313 8.83706 24.6489 8.98038 24.984 9.06774C25.3746 9.18076 25.8062 9.30173 26.2787 9.43068C26.8646 9.59151 27.479 9.75016 28.1242 9.90229C28.742 10.0475 29.3434 10.2543 29.9192 10.5195C30.4554 10.7648 30.9181 11.1437 31.2622 11.6192C31.6045 12.0951 31.7757 12.7384 31.7757 13.5426C31.7969 14.2222 31.6413 14.8958 31.3236 15.4985C31.026 16.0283 30.5922 16.4706 30.0662 16.7808C29.4842 17.1206 28.8472 17.3581 28.1834 17.4828C27.4195 17.6311 26.6424 17.7024 25.864 17.6957Z" fill="white"/>
<path d="M37.8365 17.6956C36.533 17.6956 35.4987 17.3407 34.7336 16.6307C33.9685 15.9208 33.5859 14.7762 33.5859 13.1969V4.67975H36.9807V12.6405C36.9711 12.9968 37.0207 13.3522 37.1277 13.6924C37.2106 13.9536 37.3577 14.1903 37.5556 14.3813C37.7521 14.5646 37.9909 14.6975 38.2512 14.7682C38.5532 14.8524 38.8658 14.8933 39.1794 14.8899C39.6602 14.896 40.1333 14.7704 40.5466 14.527C40.9528 14.2866 41.2833 13.9389 41.5011 13.5229C41.7317 13.0781 41.8485 12.5841 41.8413 12.0842V4.67975H45.2382V17.4066H42.4601L42.2143 15.6679H42.0431C41.7336 16.0719 41.3679 16.4304 40.9569 16.7329C40.5309 17.0443 40.0566 17.285 39.5525 17.4457C38.9976 17.6191 38.4183 17.7035 37.8365 17.6956Z" fill="white"/>
<path d="M47.7734 17.4066V4.67982H50.5823L50.85 6.66404H51.0211C51.179 6.25369 51.3931 5.86683 51.6575 5.51436C51.9173 5.16867 52.2507 4.88377 52.634 4.67982C53.0561 4.46388 53.5262 4.35627 54.0011 4.36686C54.256 4.36438 54.5103 4.39285 54.7582 4.45162C54.9329 4.49149 55.1045 4.54378 55.2717 4.6081V7.65072H54.2228C53.7702 7.64181 53.3194 7.71093 52.8908 7.855C52.5195 7.98467 52.1874 8.20522 51.9252 8.49613C51.6552 8.80345 51.4593 9.16762 51.3525 9.56104C51.2216 10.042 51.1595 10.5387 51.1682 11.0367V17.4001L47.7734 17.4066Z" fill="white"/>
<path d="M62.4088 17.6957C60.9927 17.6957 59.804 17.4581 58.8429 16.9829C57.8903 16.5157 57.1249 15.7439 56.6704 14.7922C56.1804 13.8099 55.936 12.5602 55.9375 11.0433C55.939 9.5263 56.1833 8.27231 56.6704 7.28129C57.1272 6.33922 57.8877 5.57459 58.8319 5.10799C59.7843 4.63131 60.9546 4.3937 62.3429 4.39515C63.6464 4.39515 64.7436 4.62479 65.6345 5.08408C66.5333 5.54758 67.2478 6.29806 67.6622 7.21392C68.1157 8.17162 68.3432 9.40894 68.3446 10.9259V11.7952H59.3739C59.3878 12.439 59.5079 13.0762 59.7294 13.6817C59.902 14.163 60.2388 14.5697 60.6818 14.8313C61.2117 15.1047 61.8053 15.2344 62.4022 15.2073C62.7623 15.211 63.1209 15.162 63.4665 15.0617C63.7661 14.973 64.0446 14.8251 64.285 14.627C64.5157 14.4283 64.6986 14.1811 64.8204 13.9033C64.9559 13.5897 65.0225 13.2512 65.0157 12.9101H68.3336C68.3504 13.6353 68.2003 14.3547 67.8948 15.0139C67.6116 15.598 67.1937 16.108 66.6747 16.5026C66.1147 16.9162 65.4801 17.2201 64.8051 17.398C64.0237 17.605 63.2175 17.7052 62.4088 17.6957ZM59.4288 9.65452H64.8533C64.862 9.22862 64.7997 8.80421 64.669 8.39836C64.5654 8.07714 64.395 7.781 64.1687 7.52904C63.9569 7.30371 63.6924 7.13352 63.3985 7.03353C63.072 6.92435 62.7292 6.87071 62.3846 6.87488C61.8511 6.85843 61.3207 6.9617 60.8332 7.17697C60.4238 7.37352 60.0897 7.69603 59.8808 8.09627C59.6361 8.58781 59.4808 9.11826 59.4222 9.66322L59.4288 9.65452Z" fill="white"/>
<path d="M70.75 17.4067V0.809204H74.3927V7.38995H81.8185V0.809204H85.4525V17.4067H81.8185V10.4391H74.3927V17.4067H70.75Z" fill="white"/>
<path d="M94.2703 17.6957C92.8528 17.6957 91.6634 17.4581 90.7023 16.9829C89.7497 16.5157 88.9842 15.7439 88.5298 14.7922C88.0412 13.8142 87.7969 12.5646 87.7969 11.0433C87.7969 9.52196 88.0383 8.26796 88.521 7.28129C88.9778 6.33922 89.7383 5.57459 90.6825 5.10799C91.6349 4.63131 92.8052 4.3937 94.1935 4.39515C95.497 4.39515 96.5942 4.62479 97.4851 5.08408C98.3839 5.54758 99.0984 6.29806 99.5127 7.21392C99.9677 8.17161 100.195 9.40894 100.195 10.9259V11.7952H91.2399C91.2537 12.439 91.3738 13.0762 91.5954 13.6817C91.7679 14.163 92.1048 14.5697 92.5477 14.8313C93.0784 15.1049 93.6727 15.2346 94.2703 15.2073C94.6266 15.2108 94.9815 15.1624 95.3236 15.0639C95.6235 14.9757 95.902 14.8278 96.1422 14.6292C96.3728 14.4305 96.5558 14.1832 96.6776 13.9055C96.8139 13.5921 96.8812 13.2535 96.8751 12.9123H100.195C100.213 13.6376 100.063 14.3573 99.7563 15.0161C99.4733 15.6009 99.0544 16.1111 98.534 16.5048C97.975 16.9186 97.3411 17.2226 96.6666 17.4002C95.8852 17.6065 95.079 17.706 94.2703 17.6957ZM91.2903 9.65452H96.7127C96.7213 9.22862 96.6591 8.80421 96.5284 8.39836C96.4248 8.07714 96.2543 7.781 96.028 7.52904C95.8167 7.30329 95.552 7.13303 95.2578 7.03353C94.9313 6.92435 94.5886 6.87071 94.244 6.87488C93.7112 6.85823 93.1815 6.96152 92.6948 7.17697C92.2848 7.3734 91.9499 7.69588 91.7402 8.09627C91.4966 8.58764 91.3442 9.11841 91.2903 9.66322V9.65452Z" fill="white"/>
<path d="M102.258 17.4066V4.67979H105.069L105.337 6.66401H105.508C105.666 6.25419 105.879 5.86744 106.142 5.51434C106.403 5.16908 106.737 4.8843 107.121 4.67979C107.543 4.46359 108.013 4.35597 108.488 4.36684C108.743 4.36436 108.997 4.39282 109.245 4.4516C109.419 4.49146 109.591 4.54376 109.758 4.60807V7.65069H108.709C108.257 7.64214 107.806 7.71125 107.377 7.85498C107.007 7.98463 106.675 8.20521 106.414 8.4961C106.144 8.80382 105.948 9.16779 105.839 9.56102C105.71 10.0423 105.649 10.5388 105.657 11.0367V17.4001L102.258 17.4066Z" fill="white"/>
<path fill-rule="evenodd" clip-rule="evenodd" d="M122.752 14.7813C123.256 13.7889 123.509 12.5428 123.509 11.0433C123.506 9.51181 123.253 8.25782 122.752 7.28129C122.275 6.33628 121.498 5.57267 120.54 5.10799C119.57 4.63276 118.369 4.39515 116.937 4.39515C115.538 4.3937 114.35 4.63131 113.373 5.10799C112.409 5.569 111.627 6.33324 111.148 7.28129C110.643 8.25637 110.391 9.51037 110.391 11.0433C110.391 12.5428 110.643 13.7889 111.148 14.7813C111.62 15.7407 112.403 16.5152 113.373 16.9807C114.349 17.4574 115.536 17.6957 116.937 17.6957C118.369 17.6972 119.57 17.4588 120.54 16.9807C121.503 16.5116 122.282 15.7377 122.752 14.7813ZM114.227 11.9539L118.15 6.45544L117.182 10.1609H119.691L115.622 15.6594L116.724 11.9539H114.227Z" fill="white"/>
</g>
<defs>
<clipPath id="clip0_1040_9945">
<rect width="124" height="17.2023" fill="white" transform="translate(0 0.809204)"/>
</clipPath>
</defs>
</svg>
